<?xml version="1.0" encoding="iso-8859-1"?>
<!-- Generator: Adobe Illustrator 19.0.0, SVG Export Plug-In . SVG Version: 6.00 Build 0)  -->
<svg version="1.1" id="Capa_1" xmlns="http://www.w3.org/2000/svg" xmlns:xlink="http://www.w3.org/1999/xlink" x="0px" y="0px"
	 viewBox="0 0 498.688 498.688" style="enable-background:new 0 0 498.688 498.688;" xml:space="preserve">
<g>
	<g>
		<path d="M266.688,185.344c-44.112,0-80,35.888-80,80s35.888,80,80,80s80-35.888,80-80S310.8,185.344,266.688,185.344z
			 M266.688,201.344c19.112,0,36.256,8.472,47.992,21.8l-20.52,34.2h-5.224l-8-32h-32l-4.944-19.768
			C251.056,202.888,258.688,201.344,266.688,201.344z M202.688,265.344c0-21.392,10.592-40.32,26.768-51.952l6.984,27.952h32l4,16
			h-19.168l-16,40h-25.92C205.872,287.92,202.688,277.008,202.688,265.344z M266.688,329.344c-16.168,0-30.912-6.072-42.192-16
			h23.608l6.4-16h24.184l18.272,24.36C287.944,326.576,277.632,329.344,266.688,329.344z M309.952,312.368l-23.264-31.024h-25.784
			l3.2-8h39.112l21.232-35.384c3.96,8.32,6.24,17.576,6.24,27.384C330.688,283.944,322.664,300.664,309.952,312.368z"/>
	</g>
</g>
<g>
	<g>
		<path d="M488.056,435.408L394,341.344L408.344,327l-11.312-11.312l-14.344,14.344l-15.52-15.52
			c7.304-14.872,11.52-31.512,11.52-49.168c0-34.352-15.576-65.104-40-85.664v-50.336c0-70.576-57.424-128-128-128
			s-128,57.424-128,128v80c0,21.208,16.648,38.448,37.528,39.752c6.416,18.312,18.304,34.36,34.472,46.016v20.2l-72.32,20.656
			c-23.856,6.824-42.288,25.104-49.296,48.912L0,497.344h429.384l-7.504-25.496l14.872,14.872
			c6.848,6.848,15.952,10.624,25.648,10.624c20.008,0,36.288-16.272,36.288-36.28C498.688,451.376,494.912,442.256,488.056,435.408z
			 M371.376,341.344l-28.688,28.688l-12.52-12.52c11.216-7.744,20.944-17.472,28.688-28.688L371.376,341.344z M362.688,265.344
			c0,52.936-43.064,96-96,96c-52.936,0-96-43.064-96-96c0-52.936,43.064-96,96-96C319.624,169.344,362.688,212.408,362.688,265.344z
			 M98.688,209.344c0-10.416,6.712-19.216,16-22.528v30.528c0,5.064,0.528,10.024,1.296,14.928
			C106.024,229.352,98.688,220.232,98.688,209.344z M114.688,129.344v40.808c-5.944,1.216-11.328,3.856-16,7.392v-48.2
			c0-61.76,50.24-112,112-112s112,50.24,112,112v39.152c-5.152-2.992-10.568-5.56-16.2-7.712
			c-0.976-18.288-7.616-36.016-19.088-50.352l-19.568-24.464l-13.656,11.384c-24.752,20.632-56.136,31.992-88.36,31.992H114.688z
			 M130.688,217.344v-72h35.128c35.96,0,70.984-12.68,98.616-35.704l1.112-0.92l9.368,11.712c8.16,10.2,13.32,22.512,15.064,35.384
			c-7.52-1.6-15.304-2.472-23.288-2.472c-61.76,0-112,50.24-112,112c0,3.168,0.216,6.288,0.472,9.392
			C139.704,259.8,130.688,239.304,130.688,217.344z M345.752,481.344l-7.128-56.992l-15.872,1.984l6.872,55.008H99.752l6.872-55.008
			l-15.872-1.984l-7.128,56.992H21.376l27.04-91.944c5.448-18.52,19.784-32.744,38.336-38.04l83.936-23.984v-4.64
			c19.592,32.648,55.232,54.608,96,54.608c17.648,0,34.296-4.216,49.168-11.52l15.52,15.52l-14.344,14.344L328.344,407
			l14.344-14.344l55.888,55.888l9.424,32.8H345.752z M462.4,481.344c-5.424,0-10.512-2.112-14.344-5.936L354,381.344l28.688-28.688
			l94.056,94.064c3.832,3.832,5.944,8.928,5.944,14.344C482.688,472.24,473.584,481.344,462.4,481.344z"/>
	</g>
</g>
<g>
	<g>
		<rect x="450.688" y="449.344" width="16" height="16"/>
	</g>
</g>
<g>
</g>
<g>
</g>
<g>
</g>
<g>
</g>
<g>
</g>
<g>
</g>
<g>
</g>
<g>
</g>
<g>
</g>
<g>
</g>
<g>
</g>
<g>
</g>
<g>
</g>
<g>
</g>
<g>
</g>
</svg>
